<?xml version="1.0" encoding="UTF-8"?>
<svg version="1.1" xmlns="http://www.w3.org/2000/svg" width="512" height="512">
<path d="M0 0 C1.53526588 -0.0076664 1.53526588 -0.0076664 3.10154724 -0.01548767 C6.47669359 -0.02936013 9.85163521 -0.02842871 13.22680664 -0.02612305 C15.57800879 -0.03001109 17.92921023 -0.03434598 20.28041077 -0.03910828 C25.20551837 -0.04656532 30.13055429 -0.04628278 35.05566406 -0.04101562 C41.36167837 -0.03521994 47.66739907 -0.05215717 53.97336483 -0.0753603 C58.82814749 -0.09010349 63.68285952 -0.09096855 68.5376606 -0.08785057 C70.8624384 -0.08836343 73.18722019 -0.09359443 75.51197624 -0.10366249 C78.76468787 -0.11602138 82.01682852 -0.10923819 85.26953125 -0.09765625 C86.22611633 -0.10529999 87.18270142 -0.11294373 88.16827393 -0.12081909 C96.76276144 -0.05330015 102.46383236 2.32246543 108.69946289 8.2746582 C111.8112491 12.67408009 112.81924496 16.39480837 112.83990479 21.72601318 C112.84561493 22.61185089 112.85132507 23.4976886 112.85720825 24.41036987 C112.85888504 25.8567131 112.85888504 25.8567131 112.8605957 27.33227539 C112.86556061 28.35388763 112.87052551 29.37549988 112.87564087 30.42807007 C112.89025049 33.8092313 112.8970628 37.19034559 112.90258789 40.5715332 C112.90834066 42.92319744 112.91409838 45.27486167 112.91986084 47.62652588 C112.93036764 52.55936908 112.93621231 57.49219601 112.93969727 62.42504883 C112.94517896 68.73772859 112.96920163 75.05019234 112.99766922 81.36280441 C113.01631795 86.22190982 113.02150242 91.08096345 113.02303314 95.94010162 C113.02605552 98.26685008 113.03406999 100.59359771 113.04721832 102.92031097 C113.06432389 106.1801941 113.06238723 109.43955276 113.0559082 112.69946289 C113.06512299 113.65559479 113.07433777 114.61172668 113.08383179 115.59683228 C113.04227421 122.29120918 112.27036738 128.18742143 107.83227539 133.5168457 C107.16969727 134.05567383 106.50711914 134.59450195 105.82446289 135.1496582 C105.16704102 135.70395508 104.50961914 136.25825195 103.83227539 136.8293457 C98.16523802 140.66964575 92.98434811 140.5713305 86.34472656 140.56518555 C85.30346115 140.57190277 84.26219574 140.57862 83.18937683 140.58554077 C79.74867982 140.60453126 76.30817779 140.6084456 72.86743164 140.6105957 C70.47235535 140.61702313 68.07727984 140.62375145 65.6822052 140.63076782 C60.66116516 140.6427434 55.64019394 140.64644837 50.61914062 140.64526367 C44.19318044 140.64506053 37.76766273 140.67235734 31.34180737 140.70680809 C26.39433272 140.72907375 21.44696458 140.7331013 16.49944496 140.73204422 C14.1308267 140.73440087 11.76220554 140.74322797 9.3936367 140.75870895 C6.0762393 140.77836031 2.75979642 140.77253333 -0.55761719 140.76049805 C-1.53087952 140.77173706 -2.50414185 140.78297607 -3.50689697 140.79455566 C-10.57438119 140.72958147 -15.91459664 139.19650258 -21.32397461 134.52856445 C-21.76999023 133.97040039 -22.21600586 133.41223633 -22.67553711 132.8371582 C-23.13702148 132.28157227 -23.59850586 131.72598633 -24.07397461 131.15356445 C-27.71990789 125.56855201 -27.59705522 120.39294704 -27.59106445 113.91992188 C-27.59778168 112.87865646 -27.6044989 111.83739105 -27.61141968 110.76457214 C-27.63041017 107.32387513 -27.63432451 103.8833731 -27.63647461 100.44262695 C-27.64290204 98.04755066 -27.64963036 95.65247515 -27.65664673 93.25740051 C-27.66862231 88.23636047 -27.67232728 83.21538925 -27.67114258 78.19433594 C-27.67093943 71.76837575 -27.69823625 65.34285804 -27.732687 58.91700268 C-27.75495266 53.96952803 -27.7589802 49.02215989 -27.75792313 44.07464027 C-27.76027978 41.70602202 -27.76910688 39.33740085 -27.78458786 36.96883202 C-27.80423921 33.65143462 -27.79841224 30.33499173 -27.78637695 27.01757812 C-27.79761597 26.0443158 -27.80885498 25.07105347 -27.82043457 24.06829834 C-27.75540776 16.99509083 -26.19908164 11.70261726 -21.58959961 6.2512207 C-21.04045898 5.80520508 -20.49131836 5.35918945 -19.92553711 4.8996582 C-19.38155273 4.43817383 -18.83756836 3.97668945 -18.27709961 3.5012207 C-12.45930608 -0.10903061 -6.61460809 -0.0170947 0 0 Z M19.69946289 47.2746582 C19.69946289 62.4546582 19.69946289 77.6346582 19.69946289 93.2746582 C34.87946289 93.2746582 50.05946289 93.2746582 65.69946289 93.2746582 C65.69946289 78.0946582 65.69946289 62.9146582 65.69946289 47.2746582 C50.51946289 47.2746582 35.33946289 47.2746582 19.69946289 47.2746582 Z " fill="#000000" transform="translate(120.300537109375,278.725341796875)"/>
<path d="M0 0 C1.04126541 -0.00671722 2.08253082 -0.01343445 3.15534973 -0.02035522 C6.59604674 -0.03934571 10.03654877 -0.04326005 13.47729492 -0.04541016 C15.87237122 -0.05183759 18.26744672 -0.05856591 20.66252136 -0.06558228 C25.6835614 -0.07755785 30.70453262 -0.08126283 35.72558594 -0.08007812 C42.15154612 -0.07987498 48.57706383 -0.10717179 55.0029192 -0.14162254 C59.95039385 -0.16388821 64.89776198 -0.16791575 69.8452816 -0.16685867 C72.21389986 -0.16921533 74.58252102 -0.17804242 76.95108986 -0.19352341 C80.26848726 -0.21317476 83.58493014 -0.20734779 86.90234375 -0.1953125 C87.87560608 -0.20655151 88.84886841 -0.21779053 89.85162354 -0.22937012 C96.92483105 -0.16434331 102.21730461 1.39198281 107.66870117 6.00146484 C108.1147168 6.55060547 108.56073242 7.09974609 109.02026367 7.66552734 C109.71249023 8.48150391 109.71249023 8.48150391 110.41870117 9.31396484 C114.02895249 15.13175837 113.93701658 20.97645636 113.91992188 27.59106445 C113.92503281 28.61457504 113.93014374 29.63808563 113.93540955 30.69261169 C113.949282 34.06775804 113.94835059 37.44269967 113.94604492 40.81787109 C113.94993296 43.16907324 113.95426786 45.52027468 113.95903015 47.87147522 C113.9664872 52.79658283 113.96620466 57.72161874 113.9609375 62.64672852 C113.95514181 68.95274282 113.97207904 75.25846352 113.99528217 81.56442928 C114.01002536 86.41921194 114.01089043 91.27392397 114.00777245 96.12872505 C114.0082853 98.45350285 114.01351631 100.77828464 114.02358437 103.1030407 C114.03594326 106.35575232 114.02916006 109.60789298 114.01757812 112.8605957 C114.02522186 113.81718079 114.0328656 114.77376587 114.04074097 115.75933838 C113.98130969 123.32434674 112.42226488 129.12616743 107.20092678 134.94946957 C101.05719689 140.24566558 93.79202453 140.87164379 86.02001953 140.79223633 C84.99767715 140.79763931 83.97533478 140.8030423 82.92201233 140.80860901 C79.56774276 140.82104027 76.21434088 140.8046431 72.86010742 140.78662109 C70.51558894 140.7867762 68.1710702 140.78826709 65.82655334 140.79103088 C60.92347823 140.79241234 56.02069654 140.77989795 51.11767578 140.75708008 C44.84431921 140.72868095 38.57144928 140.73144066 32.2980566 140.74417019 C27.46037159 140.75113638 22.62279837 140.74332751 17.78512764 140.73091316 C15.47235099 140.72640895 13.1595623 140.72605283 10.84678459 140.72997856 C7.61131192 140.73290034 4.37650203 140.71633738 1.14111328 140.69458008 C0.19283661 140.69908173 -0.75544006 140.70358337 -1.73245239 140.70822144 C-8.39359817 140.63408181 -14.29648997 139.83728999 -19.59692383 135.42333984 C-20.13575195 134.76076172 -20.67458008 134.09818359 -21.22973633 133.41552734 C-21.7840332 132.75810547 -22.33833008 132.10068359 -22.90942383 131.42333984 C-26.74972388 125.75630248 -26.65140862 120.57541257 -26.64526367 113.93579102 C-26.6519809 112.8945256 -26.65869812 111.85326019 -26.6656189 110.78044128 C-26.68460939 107.33974428 -26.68852373 103.89924225 -26.69067383 100.45849609 C-26.69710126 98.0634198 -26.70382958 95.66834429 -26.71084595 93.27326965 C-26.72282153 88.25222961 -26.7265265 83.23125839 -26.7253418 78.21020508 C-26.72513865 71.78424489 -26.75243547 65.35872718 -26.78688622 58.93287182 C-26.80915188 53.98539717 -26.81317942 49.03802903 -26.81212234 44.09050941 C-26.814479 41.72189116 -26.82330609 39.35326999 -26.83878708 36.98470116 C-26.85843843 33.66730376 -26.85261146 30.35086087 -26.84057617 27.03344727 C-26.85181519 26.06018494 -26.8630542 25.08692261 -26.87463379 24.08416748 C-26.80965959 17.01668326 -25.27658071 11.67646781 -20.60864258 6.26708984 C-20.05047852 5.82107422 -19.49231445 5.37505859 -18.91723633 4.91552734 C-18.36165039 4.45404297 -17.80606445 3.99255859 -17.23364258 3.51708984 C-11.64863013 -0.12884344 -6.47302517 -0.00599077 0 0 Z M20.64526367 47.29052734 C20.64526367 62.47052734 20.64526367 77.65052734 20.64526367 93.29052734 C35.82526367 93.29052734 51.00526367 93.29052734 66.64526367 93.29052734 C66.64526367 78.11052734 66.64526367 62.93052734 66.64526367 47.29052734 C51.46526367 47.29052734 36.28526367 47.29052734 20.64526367 47.29052734 Z " fill="#000000" transform="translate(119.354736328125,92.70947265625)"/>
<path d="M0 0 C1.04126541 -0.00671722 2.08253082 -0.01343445 3.15534973 -0.02035522 C6.59604674 -0.03934571 10.03654877 -0.04326005 13.47729492 -0.04541016 C15.87237122 -0.05183759 18.26744672 -0.05856591 20.66252136 -0.06558228 C25.6835614 -0.07755785 30.70453262 -0.08126283 35.72558594 -0.08007812 C42.15154612 -0.07987498 48.57706383 -0.10717179 55.0029192 -0.14162254 C59.95039385 -0.16388821 64.89776198 -0.16791575 69.8452816 -0.16685867 C72.21389986 -0.16921533 74.58252102 -0.17804242 76.95108986 -0.19352341 C80.26848726 -0.21317476 83.58493014 -0.20734779 86.90234375 -0.1953125 C87.87560608 -0.20655151 88.84886841 -0.21779053 89.85162354 -0.22937012 C96.91910776 -0.16439592 102.2593232 1.36868296 107.66870117 6.03662109 C108.33772461 6.87386719 108.33772461 6.87386719 109.02026367 7.72802734 C109.71249023 8.56140625 109.71249023 8.56140625 110.41870117 9.41162109 C114.06463445 14.99663354 113.94178178 20.1722385 113.93579102 26.64526367 C113.94250824 27.68652908 113.94922546 28.72779449 113.95614624 29.8006134 C113.97513673 33.24131041 113.97905107 36.68181244 113.98120117 40.12255859 C113.9876286 42.51763489 113.99435692 44.91271039 114.00137329 47.30778503 C114.01334887 52.32882507 114.01705384 57.3497963 114.01586914 62.37084961 C114.015666 68.79680979 114.04296281 75.2223275 114.07741356 81.64818287 C114.09967922 86.59565752 114.10370676 91.54302565 114.10264969 96.49054527 C114.10500634 98.85916353 114.11383344 101.22778469 114.12931442 103.59635353 C114.14896578 106.91375093 114.1431388 110.23019382 114.13110352 113.54760742 C114.14234253 114.52086975 114.15358154 115.49413208 114.16516113 116.49688721 C114.10013432 123.57009472 112.5438082 128.86256829 107.93432617 134.31396484 C107.11061523 134.98298828 107.11061523 134.98298828 106.27026367 135.66552734 C105.7262793 136.12701172 105.18229492 136.58849609 104.62182617 137.06396484 C98.81734662 140.66595413 92.97704086 140.5873161 86.37646484 140.58105469 C85.35616684 140.58777191 84.33586884 140.59448914 83.28465271 140.60140991 C79.91912943 140.6203731 76.55380577 140.62431333 73.18823242 140.62646484 C70.84182148 140.63289404 68.49541134 140.63962249 66.14900208 140.64663696 C61.23229108 140.65860562 56.31565032 140.66231821 51.39892578 140.66113281 C45.11097224 140.66092968 38.82347093 140.68822866 32.5356245 140.72267723 C27.6893356 140.74495813 22.84315532 140.74896997 17.99682045 140.74791336 C15.67926793 140.75026763 13.36171234 140.7590813 11.04421043 140.77457809 C7.79657051 140.79426093 4.54990301 140.78839029 1.30224609 140.77636719 C0.35285156 140.7876062 -0.59654297 140.79884521 -1.57470703 140.8104248 C-8.58188329 140.74478953 -14.92686559 139.41789078 -20.24084187 134.56976891 C-26.25995239 128.15163152 -26.65123574 121.44322323 -26.62939453 113.00585938 C-26.63450546 111.98395508 -26.63961639 110.96205078 -26.6448822 109.90917969 C-26.65875582 106.53883977 -26.65782301 103.16870488 -26.65551758 99.79833984 C-26.65940586 97.44953333 -26.6637408 95.10072751 -26.66850281 92.75192261 C-26.67596033 87.83101115 -26.67567719 82.91017144 -26.67041016 77.98925781 C-26.66461766 71.69230981 -26.68154376 65.39565614 -26.70475483 59.09875679 C-26.71950793 54.24822277 -26.72036168 49.39775936 -26.7172451 44.54720688 C-26.71775757 42.22604667 -26.72298121 39.90488244 -26.73305702 37.58374405 C-26.74543369 34.3336313 -26.73862182 31.08408844 -26.72705078 27.83398438 C-26.73469452 26.88099457 -26.74233826 25.92800476 -26.75021362 24.94613647 C-26.69780138 18.26430908 -25.91653494 12.36682944 -21.48754883 7.04833984 C-20.8249707 6.50951172 -20.16239258 5.97068359 -19.47973633 5.41552734 C-18.82231445 4.86123047 -18.16489258 4.30693359 -17.48754883 3.73583984 C-11.82051146 -0.1044602 -6.63962155 -0.00614495 0 0 Z M20.64526367 47.29052734 C20.64526367 62.47052734 20.64526367 77.65052734 20.64526367 93.29052734 C35.82526367 93.29052734 51.00526367 93.29052734 66.64526367 93.29052734 C66.64526367 78.11052734 66.64526367 62.93052734 66.64526367 47.29052734 C51.46526367 47.29052734 36.28526367 47.29052734 20.64526367 47.29052734 Z " fill="#000000" transform="translate(305.354736328125,92.70947265625)"/>
<path d="M0 0 C5.34277028 4.29382272 8.22257549 8.98767499 9.03129578 15.8914032 C9.13931922 18.54896891 9.15623356 21.19185129 9.13867188 23.8515625 C9.14404465 24.85425171 9.14941742 25.85694092 9.154953 26.89001465 C9.1646948 29.05503418 9.1676861 31.22009259 9.16459656 33.38513184 C9.16010065 36.81586199 9.17416892 40.24608123 9.19299316 43.67675781 C9.23591675 52.19447303 9.24701355 60.7121761 9.25921631 69.22998047 C9.27076053 76.4364304 9.29436658 83.64264671 9.33390808 90.84899902 C9.34744723 94.2213737 9.34331343 97.59342927 9.33850098 100.96582031 C9.34784448 103.0423218 9.35801402 105.1188198 9.36914062 107.1953125 C9.3629924 108.12645874 9.35684418 109.05760498 9.35050964 110.01696777 C9.4167207 117.07590371 10.43390738 122.77607042 15.12890625 128.3359375 C20.26728121 132.61791663 24.44840265 134.64357411 31.12260437 134.65473938 C32.42395073 134.66075165 32.42395073 134.66075165 33.75158691 134.66688538 C34.69554321 134.66635666 35.63949951 134.66582794 36.61206055 134.6652832 C37.61255936 134.66875763 38.61305817 134.67223206 39.64387512 134.67581177 C41.81661613 134.68316229 43.98936462 134.68851143 46.1621151 134.69210243 C49.60527487 134.69927531 53.04829275 134.71494891 56.4914093 134.73344421 C66.2812809 134.78587001 76.07107506 134.8338719 85.86108398 134.84936523 C91.8505008 134.85946512 97.8395608 134.88884191 103.82883644 134.93068504 C106.1072704 134.94297204 108.38575481 134.94812052 110.66422081 134.94588661 C113.85945878 134.94352505 117.05367919 134.96576653 120.2487793 134.9934082 C121.18261444 134.98680679 122.11644958 134.98020538 123.07858276 134.97340393 C130.01999715 135.07156286 136.2534842 136.47240183 141.60691357 141.13855457 C146.47825975 146.17118164 148.38156992 152.11035451 149.12890625 158.9609375 C148.31581024 166.68534963 146.51524457 173.1461884 140.75390625 178.5234375 C134.59141929 182.7251001 128.89772157 183.0991943 121.60302734 183.04101562 C120.51244019 183.0480249 119.42185303 183.05503418 118.29821777 183.06225586 C114.70766409 183.07979954 111.11790492 183.06822025 107.52734375 183.0546875 C105.01640676 183.0573846 102.50547079 183.06126884 99.99453735 183.06628418 C94.73406976 183.07217534 89.47380619 183.06401816 84.21337891 183.04492188 C78.83432538 183.02561803 73.45571337 183.02551355 68.07666016 183.04492188 C61.55748484 183.06823384 55.03863124 183.07168313 48.51942825 183.05870056 C46.04693143 183.05604902 43.57442064 183.05924707 41.10194016 183.06861877 C16.40683023 183.14164991 16.40683023 183.14164991 4.75390625 178.5234375 C4.0409137 178.25909409 3.32792114 177.99475067 2.59332275 177.72239685 C-14.55839967 170.90605357 -27.18567343 156.26694359 -34.46318722 139.62267685 C-37.63096951 131.12877244 -38.69028111 122.83036726 -38.65014648 113.82324219 C-38.65700974 112.72243317 -38.66387299 111.62162415 -38.67094421 110.48745728 C-38.68907752 106.88994032 -38.68539582 103.29286482 -38.6796875 99.6953125 C-38.6842539 97.17571879 -38.68956084 94.65612632 -38.6955719 92.13653564 C-38.70447511 86.87483766 -38.70234639 81.61325247 -38.69213867 76.3515625 C-38.68063259 70.28693948 -38.69479129 64.22275743 -38.72153515 58.1581924 C-38.74641924 52.29339931 -38.74886204 46.42877709 -38.74241829 40.56394196 C-38.74226521 38.08089716 -38.74829814 35.5978438 -38.76070976 33.11483002 C-38.77562056 29.64490518 -38.76494279 26.1759496 -38.74780273 22.70605469 C-38.7574707 21.68768524 -38.76713867 20.6693158 -38.77709961 19.62008667 C-38.70293248 12.43373585 -37.33321513 6.88295194 -32.38671875 1.5 C-22.43340828 -5.6153831 -10.52361159 -6.91813075 0 0 Z " fill="#000000" transform="translate(38.24609375,329.4765625)"/>
<path d="M0 0 C1.10080902 -0.00686325 2.20161804 -0.0137265 3.33578491 -0.02079773 C6.93330186 -0.03893104 10.53037737 -0.03524933 14.12792969 -0.02954102 C16.6475234 -0.03410742 19.16711586 -0.03941436 21.68670654 -0.04542542 C26.94840452 -0.05432862 32.20998972 -0.05219991 37.47167969 -0.04199219 C43.5363027 -0.03048611 49.60048476 -0.04464481 55.66504979 -0.07138866 C61.52984287 -0.09627276 67.3944651 -0.09871556 73.25930023 -0.0922718 C75.74234503 -0.09211873 78.22539839 -0.09815166 80.70841217 -0.11056328 C84.17833701 -0.12547407 87.64729259 -0.11479631 91.1171875 -0.09765625 C92.13555695 -0.10732422 93.15392639 -0.11699219 94.20315552 -0.12695312 C101.38950634 -0.05278599 106.94029024 1.31693135 112.32324219 6.26342773 C117.07396845 12.90895233 119.02908327 19.09027689 118.29980469 27.40405273 C116.9314152 34.27087998 113.87564646 40.04206678 108.29980469 44.40405273 C102.0072174 47.25782135 96.83052032 47.83410629 89.97167969 47.78881836 C88.96899048 47.79419113 87.96630127 47.7995639 86.93322754 47.80509949 C84.76820801 47.81484129 82.6031496 47.81783258 80.43811035 47.81474304 C77.0073802 47.81024714 73.57716096 47.82431541 70.14648438 47.84313965 C61.62876916 47.88606324 53.11106609 47.89716004 44.59326172 47.90936279 C37.38681179 47.92090701 30.18059548 47.94451306 22.97424316 47.98405457 C19.60186849 47.99759371 16.22981292 47.99345991 12.85742188 47.98864746 C10.78092038 47.99799096 8.70442239 48.00816051 6.62792969 48.01928711 C5.69678345 48.01313889 4.76563721 48.00699066 3.80627441 48.00065613 C-3.25266152 48.06686718 -8.95282823 49.08405386 -14.51269531 53.77905273 C-18.79467445 58.9174277 -20.82033192 63.09854914 -20.83149719 69.77275085 C-20.83550537 70.64031509 -20.83951355 71.50787933 -20.84364319 72.4017334 C-20.84285011 73.81766785 -20.84285011 73.81766785 -20.84204102 75.26220703 C-20.84551544 76.26270584 -20.84898987 77.26320465 -20.85256958 78.29402161 C-20.85992011 80.46676262 -20.86526924 82.6395111 -20.86886024 84.81226158 C-20.87603312 88.25542135 -20.89170672 91.69843923 -20.91020203 95.14155579 C-20.96262782 104.93142739 -21.01062972 114.72122155 -21.02612305 124.51123047 C-21.03622294 130.50064729 -21.06559972 136.48970728 -21.10744286 142.47898293 C-21.11972986 144.75741689 -21.12487834 147.0359013 -21.12264442 149.31436729 C-21.12028286 152.50960526 -21.14252434 155.70382568 -21.17016602 158.89892578 C-21.1602639 160.2996785 -21.1602639 160.2996785 -21.15016174 161.72872925 C-21.24832068 168.67014364 -22.64915964 174.90363068 -27.31531239 180.25706005 C-32.34793945 185.12840624 -38.28711232 187.03171641 -45.13769531 187.77905273 C-52.86210744 186.96595672 -59.32294621 185.16539106 -64.70019531 179.40405273 C-68.91363586 173.23160835 -69.27127807 167.52887882 -69.2019043 160.22143555 C-69.21000877 158.58073593 -69.21000877 158.58073593 -69.21827698 156.90689087 C-69.23073873 153.30670745 -69.21428481 149.70732794 -69.19628906 146.10717773 C-69.19644415 143.59145058 -69.1979348 141.07572319 -69.20069885 138.55999756 C-69.20208187 133.29113074 -69.18998273 128.02246976 -69.16674805 122.75366211 C-69.14019721 116.6915256 -69.13837574 110.62977229 -69.15013641 104.56759763 C-69.1609809 98.70495563 -69.15456778 92.84245169 -69.14058113 86.97982025 C-69.13608698 84.50009306 -69.13571189 82.02035467 -69.13964653 79.54062653 C-69.14258192 76.06160514 -69.12593834 72.58319222 -69.10424805 69.10424805 C-69.10874969 68.09397552 -69.11325134 67.083703 -69.1178894 66.04281616 C-69.01438464 55.96733495 -66.78643404 46.39411628 -62.20019531 37.40405273 C-61.85980225 36.73253174 -61.51940918 36.06101074 -61.16870117 35.36914062 C-52.93558701 19.9524283 -37.7938564 7.72592706 -21.10391617 2.60789394 C-13.95053248 0.70212571 -7.38555373 -0.0329091 0 0 Z " fill="#000000" transform="translate(68.7001953125,-0.404052734375)"/>
<path d="M0 0 C4.7469864 3.55723538 7.67727678 8.64354166 8.5381012 14.4769783 C8.68617979 17.36487577 8.70860896 20.22800488 8.68554688 23.11962891 C8.69255615 24.21021606 8.69956543 25.30080322 8.70678711 26.42443848 C8.72433079 30.01499216 8.7127515 33.60475133 8.69921875 37.1953125 C8.70191585 39.70624949 8.70580009 42.21718546 8.71081543 44.7281189 C8.71670659 49.98858649 8.70854941 55.24885006 8.68945312 60.50927734 C8.67014928 65.88833087 8.6700448 71.26694288 8.68945312 76.64599609 C8.71276509 83.16517141 8.71621438 89.68402501 8.70323181 96.203228 C8.70058027 98.67572482 8.70377832 101.14823561 8.71315002 103.62071609 C8.78618116 128.31582602 8.78618116 128.31582602 4.16796875 139.96875 C3.90362534 140.68174255 3.63928192 141.39473511 3.3669281 142.1293335 C-3.44941518 159.28105592 -18.08852516 171.90832968 -34.7327919 179.18584347 C-43.22669631 182.35362576 -51.52510149 183.41293736 -60.53222656 183.37280273 C-61.63303558 183.37966599 -62.7338446 183.38652924 -63.86801147 183.39360046 C-67.46552843 183.41173377 -71.06260393 183.40805207 -74.66015625 183.40234375 C-77.17974996 183.40691015 -79.69934243 183.41221709 -82.21893311 183.41822815 C-87.48063109 183.42713136 -92.74221628 183.42500264 -98.00390625 183.41479492 C-104.06852927 183.40328884 -110.13271132 183.41744754 -116.19727635 183.4441914 C-122.06206944 183.46907549 -127.92669166 183.47151829 -133.79152679 183.46507454 C-136.27457159 183.46492146 -138.75762495 183.47095439 -141.24063873 183.48336601 C-144.71056357 183.49827681 -148.17951915 183.48759904 -151.64941406 183.47045898 C-152.66778351 183.48012695 -153.68615295 183.48979492 -154.73538208 183.49975586 C-161.9217329 183.42558873 -167.47251681 182.05587138 -172.85546875 177.109375 C-177.60619501 170.46385041 -179.56130983 164.28252584 -178.83203125 155.96875 C-177.46364176 149.10192275 -174.40787303 143.33073596 -168.83203125 138.96875 C-162.53944396 136.11498139 -157.36274689 135.53869644 -150.50390625 135.58398438 C-148.99987244 135.57592522 -148.99987244 135.57592522 -147.4654541 135.56770325 C-145.30043457 135.55796145 -143.13537616 135.55497015 -140.97033691 135.55805969 C-137.53960676 135.5625556 -134.10938752 135.54848733 -130.67871094 135.52966309 C-122.16099572 135.4867395 -113.64329265 135.4756427 -105.12548828 135.46343994 C-97.91903835 135.45189572 -90.71282204 135.42828967 -83.50646973 135.38874817 C-80.13409505 135.37520902 -76.76203948 135.37934282 -73.38964844 135.38415527 C-71.31314695 135.37481177 -69.23664895 135.36464223 -67.16015625 135.35351562 C-66.22901001 135.35966385 -65.29786377 135.36581207 -64.33850098 135.37214661 C-57.27956504 135.30593555 -51.57939833 134.28874887 -46.01953125 129.59375 C-41.73755212 124.45537504 -39.71189464 120.2742536 -39.70072937 113.60005188 C-39.69672119 112.73248764 -39.69271301 111.8649234 -39.68858337 110.97106934 C-39.68911209 110.02711304 -39.68964081 109.08315674 -39.69018555 108.1105957 C-39.68671112 107.11009689 -39.68323669 106.10959808 -39.67965698 105.07878113 C-39.67230646 102.90604012 -39.66695732 100.73329163 -39.66336632 98.56054115 C-39.65619344 95.11738138 -39.64051984 91.6743635 -39.62202454 88.23124695 C-39.56959874 78.44137535 -39.52159685 68.65158119 -39.50610352 58.86157227 C-39.49600363 52.87215545 -39.46662684 46.88309545 -39.42478371 40.89381981 C-39.41249671 38.61538585 -39.40734823 36.33690144 -39.40958214 34.05843544 C-39.4119437 30.86319747 -39.38970222 27.66897706 -39.36206055 24.47387695 C-39.36866196 23.54004181 -39.37526337 22.60620667 -39.38206482 21.64407349 C-39.28390589 14.7026591 -37.88306692 8.46917205 -33.21691418 3.11574268 C-24.09899696 -5.70997213 -10.79214218 -6.07489453 0 0 Z " fill="#000000" transform="translate(503.83203125,329.03125)"/>
<path d="M0 0 C1.09058716 -0.00700928 2.18117432 -0.01401855 3.30480957 -0.02124023 C6.89536326 -0.03878391 10.48512242 -0.02720462 14.07568359 -0.01367188 C16.58662059 -0.01636898 19.09755656 -0.02025321 21.60848999 -0.02526855 C26.86895758 -0.03115971 32.12922115 -0.02300253 37.38964844 -0.00390625 C42.76870197 0.0153976 48.14731397 0.01550207 53.52636719 -0.00390625 C60.04554251 -0.02721821 66.5643961 -0.03066751 73.08359909 -0.01768494 C75.55609591 -0.0150334 78.02860671 -0.01823144 80.50108719 -0.02760315 C105.19619711 -0.10063428 105.19619711 -0.10063428 116.84912109 4.51757812 C117.91860992 4.91409325 117.91860992 4.91409325 119.00970459 5.31861877 C136.16142701 12.13496205 148.78870077 26.77407203 156.06621456 43.41833878 C159.23399686 51.91224319 160.29330845 60.21064837 160.25317383 69.21777344 C160.26003708 70.31858246 160.26690033 71.41939148 160.27397156 72.55355835 C160.29210487 76.1510753 160.28842316 79.74815081 160.28271484 83.34570312 C160.28728125 85.86529684 160.29258818 88.3848893 160.29859924 90.90447998 C160.30750245 96.16617796 160.30537374 101.42776316 160.29516602 106.68945312 C160.28365993 112.75407614 160.29781864 118.8182582 160.32456249 124.88282323 C160.34944659 130.74761631 160.35188939 136.61223854 160.34544563 142.47707367 C160.34529256 144.96011846 160.35132549 147.44317183 160.36373711 149.92618561 C160.3786479 153.39611045 160.36797013 156.86506603 160.35083008 160.33496094 C160.36533203 161.86251511 160.36533203 161.86251511 160.38012695 163.42092896 C160.30595982 170.60727977 158.93624247 176.15806368 153.98974609 181.54101562 C147.3442215 186.29174188 141.16289693 188.24685671 132.84912109 187.51757812 C125.98229385 186.14918864 120.21110705 183.0934199 115.84912109 177.51757812 C112.99535248 171.22499084 112.41906754 166.04829376 112.46435547 159.18945312 C112.4589827 158.18676392 112.45360992 157.18407471 112.44807434 156.15100098 C112.43833254 153.98598144 112.43534124 151.82092303 112.43843079 149.65588379 C112.44292669 146.22515363 112.42885842 142.7949344 112.41003418 139.36425781 C112.36711059 130.84654259 112.35601379 122.32883953 112.34381104 113.81103516 C112.33226681 106.60458522 112.30866077 99.39836892 112.26911926 92.1920166 C112.25558012 88.81964193 112.25971392 85.44758635 112.26452637 82.07519531 C112.25518287 79.99869382 112.24501332 77.92219583 112.23388672 75.84570312 C112.24003494 74.91455688 112.24618317 73.98341064 112.2525177 73.02404785 C112.18630664 65.96511191 111.16911996 60.26494521 106.47412109 54.70507812 C101.33574613 50.42309899 97.15462469 48.39744152 90.48042297 48.38627625 C89.61285873 48.38226807 88.74529449 48.37825989 87.85144043 48.37413025 C86.90748413 48.37465897 85.96352783 48.37518768 84.9909668 48.37573242 C83.99046799 48.372258 82.98996918 48.36878357 81.95915222 48.36520386 C79.78641121 48.35785333 77.61366272 48.3525042 75.44091225 48.34891319 C71.99775248 48.34174032 68.5547346 48.32606672 65.11161804 48.30757141 C55.32174644 48.25514561 45.53195228 48.20714372 35.74194336 48.19165039 C29.75252654 48.1815505 23.76346655 48.15217372 17.7741909 48.11033058 C15.49575694 48.09804358 13.21727253 48.0928951 10.93880653 48.09512901 C7.74356856 48.09749058 4.54934815 48.0752491 1.35424805 48.04760742 C0.4204129 48.05420883 -0.51342224 48.06081024 -1.47555542 48.06761169 C-8.41696981 47.96945276 -14.65045685 46.56861379 -20.00388622 41.90246105 C-24.87523241 36.86983399 -26.77854258 30.93066112 -27.52587891 24.08007812 C-26.71278289 16.35566599 -24.91221723 9.89482723 -19.15087891 4.51757812 C-12.98839195 0.31591552 -7.29469423 -0.05817868 0 0 Z " fill="#000000" transform="translate(352.15087890625,-0.517578125)"/>
<path d="M0 0 C0.78592026 -0.0065712 1.57184052 -0.0131424 2.38157654 -0.01991272 C4.97875065 -0.03959835 7.57586702 -0.05129884 10.1730957 -0.0612793 C11.06286417 -0.06535482 11.95263264 -0.06943035 12.86936378 -0.07362938 C17.58055004 -0.09447172 22.29170734 -0.10878037 27.00292969 -0.11816406 C31.85383614 -0.12921396 36.70428207 -0.16360269 41.55502605 -0.20333576 C45.29812944 -0.22956029 49.04112414 -0.23786115 52.78431129 -0.24144554 C54.57157304 -0.2462978 56.35883038 -0.25787276 58.14600182 -0.27648354 C78.23415072 -0.47264092 78.23415072 -0.47264092 85.01615906 5.92729187 C91.10285316 12.41583395 91.70848237 18.82860271 91.4699707 27.50512695 C90.90607664 34.21475247 88.62923984 38.06434464 83.72387695 42.55200195 C78.53173606 46.86473151 73.5124361 47.47534991 66.91796875 47.4675293 C66.10103546 47.47424652 65.28410217 47.48096375 64.44241333 47.48788452 C61.74841181 47.50684312 59.05465974 47.51078776 56.3605957 47.51293945 C54.48118488 47.51936932 52.60177506 47.52609782 50.72236633 47.53311157 C46.78412558 47.54507931 42.8459725 47.54879296 38.90771484 47.54760742 C33.87398966 47.54740437 28.84082989 47.57469485 23.80723858 47.60915184 C19.92519068 47.63144706 16.04327823 47.63544414 12.16117287 47.63438797 C10.30611029 47.63674042 8.45104378 47.64554383 6.59604454 47.6610527 C3.9946228 47.68076419 1.39441218 47.67485468 -1.20703125 47.6628418 C-1.96522659 47.67408081 -2.72342194 47.68531982 -3.5045929 47.69689941 C-10.49085521 47.61538389 -15.65987928 45.30732919 -20.65112305 40.42700195 C-25.46738894 33.27140691 -26.76799627 26.79254291 -25.83862305 18.17700195 C-24.51222295 12.50616097 -22.07880077 7.41787253 -17.16674805 4.02075195 C-11.30736942 0.51514081 -6.70720898 0.02442978 0 0 Z " fill="#000000" transform="translate(327.838623046875,371.822998046875)"/>
<path d="M0 0 C5.17294287 3.42594023 8.89534694 8.30479274 10.78125 14.1796875 C10.99369272 17.05266293 11.10899323 19.82634931 11.1171875 22.69921875 C11.1238443 23.51662033 11.1305011 24.33402191 11.13735962 25.17619324 C11.14745878 26.90170044 11.15217749 28.62724648 11.15185547 30.3527832 C11.15621886 32.9734849 11.1925383 35.59248759 11.23046875 38.21289062 C11.23633973 39.89582763 11.24030724 41.57877256 11.2421875 43.26171875 C11.25655853 44.03594681 11.27092957 44.81017487 11.28573608 45.60786438 C11.23207309 52.09673976 9.31537085 57.30101514 5 62.203125 C4.4328125 62.64914062 3.865625 63.09515625 3.28125 63.5546875 C2.7140625 64.01617187 2.146875 64.47765625 1.5625 64.953125 C-4.04025495 68.8111624 -9.93305262 69.6116858 -16.66015625 68.93359375 C-24.55615358 67.42386837 -29.53236528 63.55837781 -34.21875 57.1796875 C-36.44998684 52.84565833 -36.54061078 48.69110404 -36.5546875 43.9140625 C-36.5613443 43.12122864 -36.5680011 42.32839478 -36.57485962 41.51153564 C-36.58495824 39.83730376 -36.5896775 38.16303184 -36.58935547 36.48876953 C-36.59371262 33.95145739 -36.63001475 31.41590922 -36.66796875 28.87890625 C-36.79355105 11.10879229 -36.79355105 11.10879229 -30.49755859 4.32519531 C-22.7240186 -3.11555363 -9.76975097 -4.34671124 0 0 Z " fill="#000000" transform="translate(315.21875,280.8203125)"/>
<path d="M0 0 C0.77159454 -0.00428513 1.54318909 -0.00857025 2.33816528 -0.01298523 C3.96355208 -0.01870372 5.58896445 -0.01924717 7.21435547 -0.01489258 C9.68111549 -0.01173691 12.14666953 -0.03520666 14.61328125 -0.06054688 C16.20051934 -0.0628208 17.78776061 -0.06352293 19.375 -0.0625 C20.10234344 -0.07170975 20.82968689 -0.08091949 21.57907104 -0.09040833 C27.67610799 -0.03621536 33.25543996 1.16487694 38.0625 5.16796875 C38.60132813 5.83054687 39.14015625 6.493125 39.6953125 7.17578125 C40.24960937 7.83320313 40.80390625 8.490625 41.375 9.16796875 C45.96509888 15.94146602 45.4804704 23.44573783 44.8203125 31.30078125 C43.22801234 37.51742619 39.12307346 41.83910362 33.8203125 45.30078125 C29.39377081 47.54204194 25.16209034 47.62285287 20.30078125 47.63671875 C19.48337967 47.64337555 18.66597809 47.65003235 17.82380676 47.65689087 C16.09829956 47.66699003 14.37275352 47.67170874 12.6472168 47.67138672 C10.0265151 47.67575011 7.40751241 47.71206955 4.78710938 47.75 C3.10417237 47.75587098 1.42122744 47.75983849 -0.26171875 47.76171875 C-1.42306084 47.7832753 -1.42306084 47.7832753 -2.60786438 47.80526733 C-9.09870151 47.75158811 -14.26341679 45.81733146 -19.203125 41.5546875 C-19.64914062 40.99652344 -20.09515625 40.43835938 -20.5546875 39.86328125 C-21.01617187 39.30769531 -21.47765625 38.75210938 -21.953125 38.1796875 C-26.33210599 31.47175802 -25.8264139 23.99600679 -25.1796875 16.30078125 C-23.60625988 10.15781832 -19.52203741 5.61599444 -14.1796875 2.30078125 C-9.42434085 0.37508807 -5.07036142 -0.00631832 0 0 Z " fill="#000000" transform="translate(374.1796875,278.69921875)"/>
</svg>
